<svg width="128" height="128" viewBox="0 0 128 128" xmlns="http://www.w3.org/2000/svg">
  <!-- Background circle -->
  <circle cx="64" cy="64" r="60" fill="#3776ab" stroke="#2d5aa0" stroke-width="2"/>
  
  <!-- Python snake body -->
  <path d="M30 45 Q45 35 60 45 Q75 55 90 45 Q105 35 120 45" 
        stroke="#ffd43b" stroke-width="8" fill="none" stroke-linecap="round"/>
  
  <!-- Python snake head -->
  <circle cx="25" cy="45" r="6" fill="#ffd43b"/>
  <circle cx="20" cy="42" r="1.5" fill="#000"/>
  <circle cx="30" cy="42" r="1.5" fill="#000"/>
  
  <!-- Code formatting elements -->
  <!-- Import statement -->
  <text x="64" y="75" font-family="monospace" font-size="8" fill="white" text-anchor="middle">import</text>
  
  <!-- Quote marks -->
  <text x="45" y="85" font-family="monospace" font-size="10" fill="#ffd43b" text-anchor="middle">'</text>
  <text x="83" y="85" font-family="monospace" font-size="10" fill="#ffd43b" text-anchor="middle">'</text>
  
  <!-- Lint indicators -->
  <circle cx="35" cy="95" r="3" fill="#4caf50"/>
  <circle cx="50" cy="95" r="3" fill="#4caf50"/>
  <circle cx="65" cy="95" r="3" fill="#4caf50"/>
  <circle cx="80" cy="95" r="3" fill="#4caf50"/>
  <circle cx="95" cy="95" r="3" fill="#4caf50"/>
  
  <!-- Gear icon for fixing -->
  <g transform="translate(64, 110)">
    <circle cx="0" cy="0" r="8" fill="none" stroke="#ffd43b" stroke-width="2"/>
    <circle cx="0" cy="0" r="3" fill="#ffd43b"/>
    <path d="M0 -8 L2 -6 L-2 -6 Z" fill="#ffd43b"/>
    <path d="M0 8 L2 6 L-2 6 Z" fill="#ffd43b"/>
    <path d="M8 0 L6 2 L6 -2 Z" fill="#ffd43b"/>
    <path d="M-8 0 L-6 2 L-6 -2 Z" fill="#ffd43b"/>
  </g>
</svg> 